<?xml version="1.0" encoding="UTF-8" standalone="no"?>
<!-- Created with Inkscape (http://www.inkscape.org/) -->

<svg
   xmlns:dc="http://purl.org/dc/elements/1.1/"
   xmlns:cc="http://creativecommons.org/ns#"
   xmlns:rdf="http://www.w3.org/1999/02/22-rdf-syntax-ns#"
   xmlns:svg="http://www.w3.org/2000/svg"
   xmlns="http://www.w3.org/2000/svg"
   xmlns:sodipodi="http://sodipodi.sourceforge.net/DTD/sodipodi-0.dtd"
   xmlns:inkscape="http://www.inkscape.org/namespaces/inkscape"
   width="256"
   height="65"
   viewBox="0 0 67.733332 17.197917"
   version="1.1"
   id="svg8"
   inkscape:version="0.92.4 5da689c313, 2019-01-14"
   sodipodi:docname="logo.svg">
  <defs
     id="defs2" />
  <sodipodi:namedview
     id="base"
     pagecolor="#ffffff"
     bordercolor="#666666"
     borderopacity="1.0"
     inkscape:pageopacity="0.0"
     inkscape:pageshadow="2"
     inkscape:zoom="1.4"
     inkscape:cx="153.71127"
     inkscape:cy="-33.424241"
     inkscape:document-units="px"
     inkscape:current-layer="text817"
     showgrid="false"
     showguides="true"
     inkscape:guide-bbox="true"
     inkscape:snap-bbox="true"
     inkscape:bbox-paths="false"
     inkscape:bbox-nodes="false"
     inkscape:snap-bbox-edge-midpoints="false"
     inkscape:snap-bbox-midpoints="false"
     inkscape:snap-object-midpoints="true"
     inkscape:snap-text-baseline="true"
     inkscape:snap-page="true"
     units="px"
     inkscape:window-width="1366"
     inkscape:window-height="749"
     inkscape:window-x="0"
     inkscape:window-y="0"
     inkscape:window-maximized="0" />
  <metadata
     id="metadata5">
    <rdf:RDF>
      <cc:Work
         rdf:about="">
        <dc:format>image/svg+xml</dc:format>
        <dc:type
           rdf:resource="http://purl.org/dc/dcmitype/StillImage" />
        <dc:title></dc:title>
      </cc:Work>
    </rdf:RDF>
  </metadata>
  <g
     inkscape:groupmode="layer"
     id="layer2"
     inkscape:label="rectágulo"
     style="display:inline;opacity:0.98000004"
     transform="translate(0,-279.80207)" />
  <g
     inkscape:label="fondo"
     inkscape:groupmode="layer"
     id="layer1"
     transform="translate(0,-279.80207)">
    <g
       aria-label="Ruralia"
       style="font-style:normal;font-variant:normal;font-weight:normal;font-stretch:normal;font-size:10.58333302px;line-height:1.25;font-family:'Montserrat Alternates';-inkscape-font-specification:'Montserrat Alternates, Normal';font-variant-ligatures:normal;font-variant-caps:normal;font-variant-numeric:normal;font-feature-settings:normal;text-align:start;letter-spacing:0px;word-spacing:0px;writing-mode:lr-tb;text-anchor:start;fill:#aff352;fill-opacity:0.72941176;stroke:none;stroke-width:0.26458332"
       id="text817">
      <g
         id="g937"
         transform="matrix(0.50181427,0,0,0.50181427,-23.047256,155.80716)">
        <rect
           y="278.48819"
           x="108.30962"
           height="2.876529"
           width="72.595139"
           id="rect892"
           style="display:inline;opacity:0.98000004;fill:#78a638;fill-opacity:1;fill-rule:evenodd;stroke-width:0.17199773" />
        <rect
           y="278.48819"
           x="45.92786"
           height="2.876529"
           width="22.401268"
           id="rect892-9"
           style="display:inline;opacity:0.98000004;fill:#aff252;fill-opacity:0.4745098;fill-rule:evenodd;stroke-width:0.09554438" />
        <rect
           style="display:inline;opacity:0.98000004;fill:#aff352;fill-opacity:0.72941176;fill-rule:evenodd;stroke-width:0.1276418"
           id="rect921"
           width="39.980484"
           height="2.876529"
           x="68.329124"
           y="278.48819" />
        <path
           inkscape:connector-curvature="0"
           id="path866"
           style="font-style:normal;font-variant:normal;font-weight:normal;font-stretch:normal;font-size:10.58333302px;font-family:'Montserrat Alternates';-inkscape-font-specification:'Montserrat Alternates, Normal';font-variant-ligatures:normal;font-variant-caps:normal;font-variant-numeric:normal;font-feature-settings:normal;text-align:start;writing-mode:lr-tb;text-anchor:start;fill:#acf251;fill-opacity:0.45882353;stroke-width:0.94920588"
           d="m 67.114146,258.17008 q 0,6.56851 -5.733206,8.27708 l 6.948187,9.64392 h -5.695235 l -6.340693,-8.92252 h -5.885078 v 8.92252 H 45.92787 V 249.5513 h 9.871739 q 6.074921,0 8.694729,2.05028 2.619808,2.05029 2.619808,6.5685 z m -11.124694,4.93588 q 3.796822,0 5.163679,-1.17702 1.366856,-1.17702 1.366856,-3.75886 0,-2.6198 -1.404823,-3.56901 -1.404824,-0.98717 -5.011808,-0.98717 h -5.695235 v 9.49206 z" />
        <path
           inkscape:connector-curvature="0"
           id="path868"
           style="font-style:normal;font-variant:normal;font-weight:normal;font-stretch:normal;font-size:10.58333302px;font-family:'Montserrat Alternates';-inkscape-font-specification:'Montserrat Alternates, Normal';font-variant-ligatures:normal;font-variant-caps:normal;font-variant-numeric:normal;font-feature-settings:normal;text-align:start;writing-mode:lr-tb;text-anchor:start;fill:#aff453;fill-opacity:0.71372549;stroke-width:0.94920588"
           d="m 87.085391,266.82684 v -10.93485 h 4.252441 v 20.19909 h -4.252441 v -3.68291 q -1.025142,1.86043 -2.847618,2.92357 -1.784508,1.0631 -3.87276,1.0631 -3.417141,0 -5.543364,-2.08824 -2.088252,-2.08828 -2.088252,-6.03696 v -12.37765 h 4.252442 v 11.08673 q 0,5.58131 4.632126,5.58131 2.202156,0 3.834789,-1.44278 1.632637,-1.48076 1.632637,-4.29041 z" />
        <path
           inkscape:connector-curvature="0"
           id="path870"
           style="font-style:normal;font-variant:normal;font-weight:normal;font-stretch:normal;font-size:10.58333302px;font-family:'Montserrat Alternates';-inkscape-font-specification:'Montserrat Alternates, Normal';font-variant-ligatures:normal;font-variant-caps:normal;font-variant-numeric:normal;font-feature-settings:normal;text-align:start;writing-mode:lr-tb;text-anchor:start;fill:#aff453;fill-opacity:0.71372549;stroke-width:0.94920588"
           d="m 108.08182,259.87865 q -3.15136,0 -4.74603,2.05029 -1.59467,2.05028 -1.59467,5.5054 v 8.65674 h -4.25244 v -20.19909 h 4.25244 v 4.0626 q 1.02515,-1.89841 2.77168,-3.11339 1.78451,-1.21499 3.75886,-1.25295 l 0.038,4.2904 q -0.11391,0 -0.22781,0 z" />
        <path
           inkscape:connector-curvature="0"
           id="path872"
           style="font-style:normal;font-variant:normal;font-weight:normal;font-stretch:normal;font-size:10.58333302px;font-family:'Montserrat Alternates';-inkscape-font-specification:'Montserrat Alternates, Normal';font-variant-ligatures:normal;font-variant-caps:normal;font-variant-numeric:normal;font-feature-settings:normal;text-align:start;writing-mode:lr-tb;text-anchor:start;fill:#78a638;fill-opacity:0.98039216;stroke-width:0.94920588"
           d="m 120.80115,276.39484 q -3.83479,0 -6.68241,-2.88558 -2.84762,-2.88559 -2.84762,-7.59366 0,-4.70806 2.92356,-7.51771 2.92355,-2.80964 6.91022,-2.80964 3.98666,0 6.5685,3.79682 v -3.49308 h 4.25244 v 20.19909 h -4.25244 v -3.30324 q -1.21498,1.74657 -3.11339,2.69576 -1.86045,0.91124 -3.75886,0.91124 z m -5.27758,-10.28939 q 0,2.88558 1.86044,4.70806 1.86044,1.82247 4.36635,1.82247 2.5059,0 4.25244,-1.82247 1.74654,-1.86045 1.74654,-4.74603 0,-2.88559 -1.74654,-4.82197 -1.74654,-1.93638 -4.29041,-1.93638 -2.54387,0 -4.36635,1.93638 -1.82247,1.93638 -1.82247,4.85994 z" />
        <path
           inkscape:connector-curvature="0"
           id="path874"
           style="font-style:normal;font-variant:normal;font-weight:normal;font-stretch:normal;font-size:10.58333302px;font-family:'Montserrat Alternates';-inkscape-font-specification:'Montserrat Alternates, Normal';font-variant-ligatures:normal;font-variant-caps:normal;font-variant-numeric:normal;font-feature-settings:normal;text-align:start;writing-mode:lr-tb;text-anchor:start;fill:#78a638;fill-opacity:0.98039216;stroke-width:0.94920588"
           d="m 148.17621,274.64831 q -1.51872,1.74653 -4.25244,1.74653 -2.73371,0 -4.40431,-1.63262 -1.63264,-1.63266 -1.63264,-4.82198 V 249.5513 h 4.25245 v 19.89535 q 0,3.03747 2.27809,3.03747 1.32889,0 1.89841,-0.94923 z" />
        <path
           inkscape:connector-curvature="0"
           id="path888"
           d="m 155.39017,276.09108 h -4.25244 v -20.19909 h 4.25244 z"
           style="font-style:normal;font-variant:normal;font-weight:normal;font-stretch:normal;font-size:10.58333302px;font-family:'Montserrat Alternates';-inkscape-font-specification:'Montserrat Alternates, Normal';font-variant-ligatures:normal;font-variant-caps:normal;font-variant-numeric:normal;font-feature-settings:normal;text-align:start;writing-mode:lr-tb;text-anchor:start;fill:#78a638;fill-opacity:0.98039216;stroke-width:0.94920588" />
        <path
           inkscape:connector-curvature="0"
           id="path876"
           d="m 151.40351,251.86736 q -0.79733,-0.79734 -0.79733,-1.89842 0,-1.10107 0.79733,-1.89841 0.79733,-0.79733 1.89841,-0.79733 1.10108,0 1.89841,0.79733 0.79734,0.79734 0.79734,1.89841 0,1.10108 -0.79734,1.89842 -0.79733,0.79733 -1.89841,0.79733 -1.10108,0 -1.89841,-0.79733 z"
           style="font-style:normal;font-variant:normal;font-weight:normal;font-stretch:normal;font-size:10.58333302px;font-family:'Montserrat Alternates';-inkscape-font-specification:'Montserrat Alternates, Normal';font-variant-ligatures:normal;font-variant-caps:normal;font-variant-numeric:normal;font-feature-settings:normal;text-align:start;writing-mode:lr-tb;text-anchor:start;fill:#78a638;fill-opacity:0.98039216;stroke-width:0.94920588" />
        <path
           inkscape:connector-curvature="0"
           id="path878"
           style="font-style:normal;font-variant:normal;font-weight:normal;font-stretch:normal;font-size:10.58333302px;font-family:'Montserrat Alternates';-inkscape-font-specification:'Montserrat Alternates, Normal';font-variant-ligatures:normal;font-variant-caps:normal;font-variant-numeric:normal;font-feature-settings:normal;text-align:start;writing-mode:lr-tb;text-anchor:start;fill:#78a638;fill-opacity:0.98039216;stroke-width:0.94920588"
           d="m 169.78007,276.39484 q -3.83479,0 -6.68241,-2.88558 -2.84762,-2.88559 -2.84762,-7.59366 0,-4.70806 2.92355,-7.51771 2.92356,-2.80964 6.91022,-2.80964 3.98667,0 6.56851,3.79682 v -3.49308 h 4.25244 v 20.19909 h -4.25244 v -3.30324 q -1.21498,1.74657 -3.1134,2.69576 -1.86044,0.91124 -3.75885,0.91124 z m -5.27759,-10.28939 q 0,2.88558 1.86045,4.70806 1.86044,1.82247 4.36635,1.82247 2.5059,0 4.25244,-1.82247 1.74653,-1.86045 1.74653,-4.74603 0,-2.88559 -1.74653,-4.82197 -1.74654,-1.93638 -4.29041,-1.93638 -2.54388,0 -4.36635,1.93638 -1.82248,1.93638 -1.82248,4.85994 z" />
      </g>
    </g>
  </g>
</svg>
